  0
SECTION
  2
HEADER
  9
$ACADVER
  1
AC1009
  9
$INSBASE
 10
0.0
 20
0.0
 30
0.0
  9
$EXTMIN
 10
0.0
 20
0.0
 30
0.0
  9
$EXTMAX
 10
0.0
 20
0.0
 30
0.0
  0
ENDSEC
  0
SECTION
  2
TABLES
  0
TABLE
  2
VPORT
 70
0
  0
ENDTAB
  0
TABLE
  2
LTYPE
 70
1
  0
LTYPE
  2
CONTINUOUS
 70
0
  3
Solid line
 72
65
 73
0
 40
0.0
  0
ENDTAB
  0
TABLE
  2
LAYER
 70
1
  0
LAYER
  2
0
 70
64
 62
7
  6
continuous
  0
ENDTAB
  0
TABLE
  2
STYLE
 70
1
  0
STYLE
  2
STANDARD
 70
0
 40
0
 41
1.0
 50
0.0
 71
0
 42
1
 3
ARIAL.TTF
 4

  0
ENDTAB
  0
TABLE
  2
VIEW
 70
0
  0
ENDTAB
  0
ENDSEC
  0
SECTION
  2
BLOCKS
  0
BLOCK
  8
0
  2
PART__FEATURE
 70
0
 10
0.0
 20
0.0
 30
0.0
  3
PART__FEATURE
  0
ARC
  8
0
 62
0
 10
16.0
 20
-81.0
 30
0.0
 40
1.5
 50
-180.0
 51
-0.0
  0
ARC
  8
0
 62
0
 10
-3.88578058619e-16
 20
-76.0
 30
0.0
 40
1.5
 50
-180.0
 51
-0.0
  0
ARC
  8
0
 62
0
 10
26.6721779994
 20
-45.4202014333
 30
0.0
 40
1.5
 50
180.0
 51
0.0
  0
ARC
  8
0
 62
0
 10
22.3969262079
 20
-57.1663591931
 30
0.0
 40
1.5
 50
-180.0
 51
-0.0
  0
ARC
  8
0
 62
0
 10
17.2752517916
 20
-42.0
 30
0.0
 40
1.5
 50
-180.0
 51
-0.0
  0
ARC
  8
0
 62
0
 10
13.0
 20
-53.7461577598
 30
0.0
 40
1.5
 50
-180.0
 51
-0.0
  0
ARC
  8
0
 62
0
 10
17.0
 20
-29.5
 30
0.0
 40
1.5
 50
-180.0
 51
-0.0
  0
ARC
  8
0
 62
0
 10
15.25
 20
-15.25
 30
0.0
 40
1.5
 50
-180.0
 51
-0.0
  0
ARC
  8
0
 62
0
 10
-15.25
 20
-15.25
 30
0.0
 40
1.5
 50
-180.0
 51
-0.0
  0
ARC
  8
0
 62
0
 10
-17.0
 20
-29.5
 30
0.0
 40
1.5
 50
-180.0
 51
-0.0
  0
ARC
  8
0
 62
0
 10
-13.0
 20
-53.7461577598
 30
0.0
 40
1.5
 50
-180.0
 51
-0.0
  0
ARC
  8
0
 62
0
 10
-17.2752517916
 20
-42.0
 30
0.0
 40
1.5
 50
-180.0
 51
-0.0
  0
ARC
  8
0
 62
0
 10
-22.3969262079
 20
-57.1663591931
 30
0.0
 40
1.5
 50
-180.0
 51
-0.0
  0
ARC
  8
0
 62
0
 10
-26.6721779994
 20
-45.4202014333
 30
0.0
 40
1.5
 50
180.0
 51
0.0
  0
ARC
  8
0
 62
0
 10
-16.0
 20
-81.0
 30
0.0
 40
1.5
 50
-180.0
 51
-0.0
  0
ARC
  8
0
 62
0
 10
-16.0
 20
81.0
 30
0.0
 40
1.5
 50
-180.0
 51
-0.0
  0
ARC
  8
0
 62
0
 10
-26.6721779994
 20
45.4202014333
 30
0.0
 40
1.5
 50
180.0
 51
0.0
  0
ARC
  8
0
 62
0
 10
-22.3969262079
 20
57.1663591931
 30
0.0
 40
1.5
 50
-180.0
 51
-0.0
  0
ARC
  8
0
 62
0
 10
-17.2752517916
 20
42.0
 30
0.0
 40
1.5
 50
-180.0
 51
-0.0
  0
ARC
  8
0
 62
0
 10
-13.0
 20
53.7461577598
 30
0.0
 40
1.5
 50
-180.0
 51
-0.0
  0
ARC
  8
0
 62
0
 10
-17.0
 20
29.5
 30
0.0
 40
1.5
 50
-180.0
 51
-0.0
  0
ARC
  8
0
 62
0
 10
-15.25
 20
15.25
 30
0.0
 40
1.5
 50
180.0
 51
0.0
  0
ARC
  8
0
 62
0
 10
15.25
 20
15.25
 30
0.0
 40
1.5
 50
180.0
 51
0.0
  0
ARC
  8
0
 62
0
 10
17.0
 20
29.5
 30
0.0
 40
1.5
 50
-180.0
 51
-0.0
  0
ARC
  8
0
 62
0
 10
13.0
 20
53.7461577598
 30
0.0
 40
1.5
 50
-180.0
 51
-0.0
  0
ARC
  8
0
 62
0
 10
17.2752517916
 20
42.0
 30
0.0
 40
1.5
 50
-180.0
 51
-0.0
  0
ARC
  8
0
 62
0
 10
22.3969262079
 20
57.1663591931
 30
0.0
 40
1.5
 50
-180.0
 51
-0.0
  0
ARC
  8
0
 62
0
 10
26.6721779994
 20
45.4202014333
 30
0.0
 40
1.5
 50
180.0
 51
0.0
  0
ARC
  8
0
 62
0
 10
-3.88578058619e-16
 20
76.0
 30
0.0
 40
1.5
 50
-180.0
 51
-0.0
  0
ARC
  8
0
 62
0
 10
16.0
 20
81.0
 30
0.0
 40
1.5
 50
-180.0
 51
-0.0
  0
ARC
  8
0
 62
0
 10
-31.7720788239
 20
-43.2735543233
 30
0.0
 40
2.0
 50
180.0
 51
-160.0
  0
ARC
  8
0
 62
0
 10
-31.7720788239
 20
43.2735543233
 30
0.0
 40
2.0
 50
-180.0
 51
-146.0
  0
LINE
  8
0
 62
0
 10
14.5
 20
-75.0
 30
0.0
 11
14.5
 21
-77.0
 31
0.0
  0
ARC
  8
0
 62
0
 10
13.75
 20
-77.0
 30
0.0
 40
0.75
 50
-180.0
 51
-0.0
  0
LINE
  8
0
 62
0
 10
13.0
 20
-77.0
 30
0.0
 11
6.0
 21
-77.0
 31
0.0
  0
ARC
  8
0
 62
0
 10
5.25
 20
-77.0
 30
0.0
 40
0.75
 50
-180.0
 51
-0.0
  0
LINE
  8
0
 62
0
 10
4.5
 20
-77.0
 30
0.0
 11
4.5
 21
-75.0
 31
0.0
  0
ARC
  8
0
 62
0
 10
5.25
 20
-75.0
 30
0.0
 40
0.75
 50
-0.0
 51
-180.0
  0
LINE
  8
0
 62
0
 10
6.0
 20
-75.0
 30
0.0
 11
13.0
 21
-75.0
 31
0.0
  0
ARC
  8
0
 62
0
 10
13.75
 20
-75.0
 30
0.0
 40
0.75
 50
-0.0
 51
-180.0
  0
LINE
  8
0
 62
0
 10
-4.5
 20
-75.0
 30
0.0
 11
-4.5
 21
-77.0
 31
0.0
  0
ARC
  8
0
 62
0
 10
-5.25
 20
-77.0
 30
0.0
 40
0.75
 50
-180.0
 51
-0.0
  0
LINE
  8
0
 62
0
 10
-6.0
 20
-77.0
 30
0.0
 11
-13.0
 21
-77.0
 31
0.0
  0
ARC
  8
0
 62
0
 10
-13.75
 20
-77.0
 30
0.0
 40
0.75
 50
-180.0
 51
-0.0
  0
LINE
  8
0
 62
0
 10
-14.5
 20
-77.0
 30
0.0
 11
-14.5
 21
-75.0
 31
0.0
  0
ARC
  8
0
 62
0
 10
-13.75
 20
-75.0
 30
0.0
 40
0.75
 50
-0.0
 51
-180.0
  0
LINE
  8
0
 62
0
 10
-13.0
 20
-75.0
 30
0.0
 11
-6.0
 21
-75.0
 31
0.0
  0
ARC
  8
0
 62
0
 10
-5.25
 20
-75.0
 30
0.0
 40
0.75
 50
-0.0
 51
-180.0
  0
LINE
  8
0
 62
0
 10
-14.5
 20
75.0
 30
0.0
 11
-14.5
 21
77.0
 31
0.0
  0
ARC
  8
0
 62
0
 10
-13.75
 20
77.0
 30
0.0
 40
0.75
 50
-0.0
 51
-180.0
  0
LINE
  8
0
 62
0
 10
-13.0
 20
77.0
 30
0.0
 11
-6.0
 21
77.0
 31
0.0
  0
ARC
  8
0
 62
0
 10
-5.25
 20
77.0
 30
0.0
 40
0.75
 50
-0.0
 51
-180.0
  0
LINE
  8
0
 62
0
 10
-4.5
 20
77.0
 30
0.0
 11
-4.5
 21
75.0
 31
0.0
  0
ARC
  8
0
 62
0
 10
-5.25
 20
75.0
 30
0.0
 40
0.75
 50
-180.0
 51
-0.0
  0
LINE
  8
0
 62
0
 10
-6.0
 20
75.0
 30
0.0
 11
-13.0
 21
75.0
 31
0.0
  0
ARC
  8
0
 62
0
 10
-13.75
 20
75.0
 30
0.0
 40
0.75
 50
-180.0
 51
-0.0
  0
LINE
  8
0
 62
0
 10
6.0
 20
77.0
 30
0.0
 11
13.0
 21
77.0
 31
0.0
  0
ARC
  8
0
 62
0
 10
13.75
 20
77.0
 30
0.0
 40
0.75
 50
-0.0
 51
-180.0
  0
LINE
  8
0
 62
0
 10
14.5
 20
77.0
 30
0.0
 11
14.5
 21
75.0
 31
0.0
  0
ARC
  8
0
 62
0
 10
13.75
 20
75.0
 30
0.0
 40
0.75
 50
-180.0
 51
-0.0
  0
LINE
  8
0
 62
0
 10
13.0
 20
75.0
 30
0.0
 11
6.0
 21
75.0
 31
0.0
  0
ARC
  8
0
 62
0
 10
5.25
 20
75.0
 30
0.0
 40
0.75
 50
-180.0
 51
-0.0
  0
LINE
  8
0
 62
0
 10
4.5
 20
75.0
 30
0.0
 11
4.5
 21
77.0
 31
0.0
  0
ARC
  8
0
 62
0
 10
5.25
 20
77.0
 30
0.0
 40
0.75
 50
-0.0
 51
-180.0
  0
ARC
  8
0
 62
0
 10
16.0
 20
-81.0
 30
0.0
 40
1.5
 50
-0.0
 51
-180.0
  0
ARC
  8
0
 62
0
 10
3.88578058619e-16
 20
-76.0
 30
0.0
 40
1.5
 50
-0.0
 51
-180.0
  0
ARC
  8
0
 62
0
 10
26.6721779994
 20
-45.4202014333
 30
0.0
 40
1.5
 50
-0.0
 51
-180.0
  0
ARC
  8
0
 62
0
 10
22.3969262079
 20
-57.1663591931
 30
0.0
 40
1.5
 50
-0.0
 51
-180.0
  0
ARC
  8
0
 62
0
 10
17.2752517916
 20
-42.0
 30
0.0
 40
1.5
 50
-0.0
 51
-180.0
  0
ARC
  8
0
 62
0
 10
13.0
 20
-53.7461577598
 30
0.0
 40
1.5
 50
-0.0
 51
-180.0
  0
ARC
  8
0
 62
0
 10
17.0
 20
-29.5
 30
0.0
 40
1.5
 50
-0.0
 51
-180.0
  0
ARC
  8
0
 62
0
 10
15.25
 20
-15.25
 30
0.0
 40
1.5
 50
-0.0
 51
-180.0
  0
ARC
  8
0
 62
0
 10
-15.25
 20
-15.25
 30
0.0
 40
1.5
 50
-0.0
 51
-180.0
  0
ARC
  8
0
 62
0
 10
-17.0
 20
-29.5
 30
0.0
 40
1.5
 50
-0.0
 51
-180.0
  0
ARC
  8
0
 62
0
 10
-13.0
 20
-53.7461577598
 30
0.0
 40
1.5
 50
-0.0
 51
-180.0
  0
ARC
  8
0
 62
0
 10
-17.2752517916
 20
-42.0
 30
0.0
 40
1.5
 50
-0.0
 51
-180.0
  0
ARC
  8
0
 62
0
 10
-22.3969262079
 20
-57.1663591931
 30
0.0
 40
1.5
 50
-0.0
 51
-180.0
  0
ARC
  8
0
 62
0
 10
-26.6721779994
 20
-45.4202014333
 30
0.0
 40
1.5
 50
-0.0
 51
-180.0
  0
ARC
  8
0
 62
0
 10
-16.0
 20
-81.0
 30
0.0
 40
1.5
 50
-0.0
 51
-180.0
  0
ARC
  8
0
 62
0
 10
-16.0
 20
81.0
 30
0.0
 40
1.5
 50
-0.0
 51
-180.0
  0
ARC
  8
0
 62
0
 10
-26.6721779994
 20
45.4202014333
 30
0.0
 40
1.5
 50
-0.0
 51
-180.0
  0
ARC
  8
0
 62
0
 10
-22.3969262079
 20
57.1663591931
 30
0.0
 40
1.5
 50
-0.0
 51
-180.0
  0
ARC
  8
0
 62
0
 10
-17.2752517916
 20
42.0
 30
0.0
 40
1.5
 50
-0.0
 51
-180.0
  0
ARC
  8
0
 62
0
 10
-13.0
 20
53.7461577598
 30
0.0
 40
1.5
 50
-0.0
 51
-180.0
  0
ARC
  8
0
 62
0
 10
-17.0
 20
29.5
 30
0.0
 40
1.5
 50
-0.0
 51
-180.0
  0
ARC
  8
0
 62
0
 10
-15.25
 20
15.25
 30
0.0
 40
1.5
 50
0.0
 51
180.0
  0
ARC
  8
0
 62
0
 10
15.25
 20
15.25
 30
0.0
 40
1.5
 50
0.0
 51
180.0
  0
ARC
  8
0
 62
0
 10
17.0
 20
29.5
 30
0.0
 40
1.5
 50
-0.0
 51
-180.0
  0
ARC
  8
0
 62
0
 10
13.0
 20
53.7461577598
 30
0.0
 40
1.5
 50
-0.0
 51
-180.0
  0
ARC
  8
0
 62
0
 10
17.2752517916
 20
42.0
 30
0.0
 40
1.5
 50
-0.0
 51
-180.0
  0
ARC
  8
0
 62
0
 10
22.3969262079
 20
57.1663591931
 30
0.0
 40
1.5
 50
-0.0
 51
-180.0
  0
ARC
  8
0
 62
0
 10
26.6721779994
 20
45.4202014333
 30
0.0
 40
1.5
 50
-0.0
 51
-180.0
  0
ARC
  8
0
 62
0
 10
3.88578058619e-16
 20
76.0
 30
0.0
 40
1.5
 50
-0.0
 51
-180.0
  0
ARC
  8
0
 62
0
 10
16.0
 20
81.0
 30
0.0
 40
1.5
 50
-0.0
 51
-180.0
  0
ARC
  8
0
 62
0
 10
19.0
 20
7.0
 30
0.0
 40
1.0
 50
-0.0
 51
180.0
  0
LINE
  8
0
 62
0
 10
20.0
 20
-7.0
 30
0.0
 11
20.0
 21
7.0
 31
0.0
  0
ARC
  8
0
 62
0
 10
19.0
 20
-7.0
 30
0.0
 40
1.0
 50
180.0
 51
0.0
  0
LINE
  8
0
 62
0
 10
18.0
 20
7.0
 30
0.0
 11
18.0
 21
-7.0
 31
0.0
  0
ARC
  8
0
 62
0
 10
9.5
 20
-37.25
 30
0.0
 40
1.5
 50
-180.0
 51
-0.0
  0
LINE
  8
0
 62
0
 10
8.0
 20
-20.25
 30
0.0
 11
8.0
 21
-37.25
 31
0.0
  0
ARC
  8
0
 62
0
 10
9.5
 20
-20.25
 30
0.0
 40
1.5
 50
-0.0
 51
-180.0
  0
LINE
  8
0
 62
0
 10
11.0
 20
-37.25
 30
0.0
 11
11.0
 21
-20.25
 31
0.0
  0
ARC
  8
0
 62
0
 10
-10.2
 20
-70.25
 30
0.0
 40
1.0
 50
-180.0
 51
-0.0
  0
LINE
  8
0
 62
0
 10
-11.2
 20
-58.25
 30
0.0
 11
-11.2
 21
-70.25
 31
0.0
  0
ARC
  8
0
 62
0
 10
-10.2
 20
-58.25
 30
0.0
 40
1.0
 50
-0.0
 51
-180.0
  0
LINE
  8
0
 62
0
 10
-9.2
 20
-70.25
 30
0.0
 11
-9.2
 21
-58.25
 31
0.0
  0
ARC
  8
0
 62
0
 10
3.0
 20
-69.25
 30
0.0
 40
2.0
 50
-90.0
 51
-0.0
  0
LINE
  8
0
 62
0
 10
-3.0
 20
-71.25
 30
0.0
 11
3.0
 21
-71.25
 31
0.0
  0
ARC
  8
0
 62
0
 10
-3.0
 20
-69.25
 30
0.0
 40
2.0
 50
-180.0
 51
-90.0
  0
LINE
  8
0
 62
0
 10
-5.0
 20
-58.25
 30
0.0
 11
-5.0
 21
-69.25
 31
0.0
  0
ARC
  8
0
 62
0
 10
-3.0
 20
-58.25
 30
0.0
 40
2.0
 50
90.0
 51
180.0
  0
LINE
  8
0
 62
0
 10
3.0
 20
-56.25
 30
0.0
 11
-3.0
 21
-56.25
 31
0.0
  0
ARC
  8
0
 62
0
 10
3.0
 20
-58.25
 30
0.0
 40
2.0
 50
0.0
 51
90.0
  0
LINE
  8
0
 62
0
 10
5.0
 20
-69.25
 30
0.0
 11
5.0
 21
-58.25
 31
0.0
  0
ARC
  8
0
 62
0
 10
-9.5
 20
37.25
 30
0.0
 40
1.5
 50
-0.0
 51
-180.0
  0
LINE
  8
0
 62
0
 10
-8.0
 20
20.25
 30
0.0
 11
-8.0
 21
37.25
 31
0.0
  0
ARC
  8
0
 62
0
 10
-9.5
 20
20.25
 30
0.0
 40
1.5
 50
-180.0
 51
-0.0
  0
LINE
  8
0
 62
0
 10
-11.0
 20
37.25
 30
0.0
 11
-11.0
 21
20.25
 31
0.0
  0
ARC
  8
0
 62
0
 10
10.2
 20
70.25
 30
0.0
 40
1.0
 50
-0.0
 51
-180.0
  0
LINE
  8
0
 62
0
 10
11.2
 20
58.25
 30
0.0
 11
11.2
 21
70.25
 31
0.0
  0
ARC
  8
0
 62
0
 10
10.2
 20
58.25
 30
0.0
 40
1.0
 50
-180.0
 51
-0.0
  0
LINE
  8
0
 62
0
 10
9.2
 20
70.25
 30
0.0
 11
9.2
 21
58.25
 31
0.0
  0
ARC
  8
0
 62
0
 10
-3.0
 20
69.25
 30
0.0
 40
2.0
 50
90.0
 51
-180.0
  0
LINE
  8
0
 62
0
 10
3.0
 20
71.25
 30
0.0
 11
-3.0
 21
71.25
 31
0.0
  0
ARC
  8
0
 62
0
 10
3.0
 20
69.25
 30
0.0
 40
2.0
 50
-0.0
 51
90.0
  0
LINE
  8
0
 62
0
 10
5.0
 20
58.25
 30
0.0
 11
5.0
 21
69.25
 31
0.0
  0
ARC
  8
0
 62
0
 10
3.0
 20
58.25
 30
0.0
 40
2.0
 50
-90.0
 51
-0.0
  0
LINE
  8
0
 62
0
 10
-3.0
 20
56.25
 30
0.0
 11
3.0
 21
56.25
 31
0.0
  0
ARC
  8
0
 62
0
 10
-3.0
 20
58.25
 30
0.0
 40
2.0
 50
-180.0
 51
-90.0
  0
LINE
  8
0
 62
0
 10
-5.0
 20
69.25
 30
0.0
 11
-5.0
 21
58.25
 31
0.0
  0
ARC
  8
0
 62
0
 10
31.7720788239
 20
43.2735543233
 30
0.0
 40
2.0
 50
-34.0
 51
20.0
  0
LINE
  8
0
 62
0
 10
33.6514640655
 20
43.95759461
 30
0.0
 11
24.571418021
 21
68.9048160847
 31
0.0
  0
ARC
  8
0
 62
0
 10
26.4508032626
 20
69.5888563714
 30
0.0
 40
2.0
 50
-160.0
 51
-175.5
  0
LINE
  8
0
 62
0
 10
24.4569685951
 20
69.4319381799
 30
0.0
 11
23.1214990453
 21
86.4006876985
 31
0.0
  0
ARC
  8
0
 62
0
 10
21.1276643779
 20
86.2437695071
 30
0.0
 40
2.0
 50
4.5
 51
80.0
  0
LINE
  8
0
 62
0
 10
21.4749607332
 20
88.2133850131
 30
0.0
 11
-1.42108547152e-14
 21
92.0
 31
0.0
  0
LINE
  8
0
 62
0
 10
-7.1054273576e-15
 20
92.0
 30
0.0
 11
-21.4749607332
 21
88.2133850131
 31
0.0
  0
ARC
  8
0
 62
0
 10
-21.1276643779
 20
86.2437695071
 30
0.0
 40
2.0
 50
100.0
 51
175.5
  0
LINE
  8
0
 62
0
 10
-23.1214990453
 20
86.4006876985
 30
0.0
 11
-24.4569685951
 21
69.4319381799
 31
0.0
  0
ARC
  8
0
 62
0
 10
-26.4508032626
 20
69.5888563714
 30
0.0
 40
2.0
 50
-4.5
 51
-20.0
  0
LINE
  8
0
 62
0
 10
-24.571418021
 20
68.9048160847
 30
0.0
 11
-33.6514640655
 21
43.95759461
 31
0.0
  0
ARC
  8
0
 62
0
 10
-31.7720788239
 20
43.2735543233
 30
0.0
 40
2.0
 50
160.0
 51
-180.0
  0
LINE
  8
0
 62
0
 10
-33.430153969
 20
42.1551685164
 30
0.0
 11
-25.3419248549
 21
30.1638757274
 31
0.0
  0
ARC
  8
0
 62
0
 10
-27.0
 20
29.0454899205
 30
0.0
 40
2.0
 50
34.0
 51
0.0
  0
LINE
  8
0
 62
0
 10
-25.0
 20
29.0454899205
 30
0.0
 11
-25.0
 21
-29.0454899205
 31
0.0
  0
ARC
  8
0
 62
0
 10
-27.0
 20
-29.0454899205
 30
0.0
 40
2.0
 50
-0.0
 51
-34.0
  0
LINE
  8
0
 62
0
 10
-25.3419248549
 20
-30.1638757274
 30
0.0
 11
-33.430153969
 21
-42.1551685164
 31
0.0
  0
ARC
  8
0
 62
0
 10
-31.7720788239
 20
-43.2735543233
 30
0.0
 40
2.0
 50
146.0
 51
-180.0
  0
LINE
  8
0
 62
0
 10
-33.6514640655
 20
-43.95759461
 30
0.0
 11
-24.571418021
 21
-68.9048160847
 31
0.0
  0
ARC
  8
0
 62
0
 10
-26.4508032626
 20
-69.5888563714
 30
0.0
 40
2.0
 50
20.0
 51
4.5
  0
LINE
  8
0
 62
0
 10
-24.4569685951
 20
-69.4319381799
 30
0.0
 11
-23.1214990453
 21
-86.4006876985
 31
0.0
  0
ARC
  8
0
 62
0
 10
-21.1276643779
 20
-86.2437695071
 30
0.0
 40
2.0
 50
-175.5
 51
-100.0
  0
LINE
  8
0
 62
0
 10
-21.4749607332
 20
-88.2133850131
 30
0.0
 11
-2.26957549884e-12
 21
-92.0
 31
0.0
  0
LINE
  8
0
 62
0
 10
-2.26957549884e-12
 20
-92.0
 30
0.0
 11
21.4749607332
 21
-88.2133850131
 31
0.0
  0
ARC
  8
0
 62
0
 10
21.1276643779
 20
-86.2437695071
 30
0.0
 40
2.0
 50
-80.0
 51
-4.5
  0
LINE
  8
0
 62
0
 10
23.1214990453
 20
-86.4006876985
 30
0.0
 11
24.4569685951
 21
-69.4319381799
 31
0.0
  0
ARC
  8
0
 62
0
 10
26.4508032626
 20
-69.5888563714
 30
0.0
 40
2.0
 50
175.5
 51
160.0
  0
LINE
  8
0
 62
0
 10
24.571418021
 20
-68.9048160847
 30
0.0
 11
33.6514640655
 21
-43.95759461
 31
0.0
  0
ARC
  8
0
 62
0
 10
31.7720788239
 20
-43.2735543233
 30
0.0
 40
2.0
 50
-20.0
 51
34.0
  0
LINE
  8
0
 62
0
 10
33.430153969
 20
-42.1551685164
 30
0.0
 11
25.3419248549
 21
-30.1638757274
 31
0.0
  0
ARC
  8
0
 62
0
 10
27.0
 20
-29.0454899205
 30
0.0
 40
2.0
 50
-146.0
 51
-180.0
  0
LINE
  8
0
 62
0
 10
25.0
 20
-29.0454899205
 30
0.0
 11
25.0
 21
29.0454899205
 31
0.0
  0
ARC
  8
0
 62
0
 10
27.0
 20
29.0454899205
 30
0.0
 40
2.0
 50
180.0
 51
146.0
  0
LINE
  8
0
 62
0
 10
25.3419248549
 20
30.1638757274
 30
0.0
 11
33.430153969
 21
42.1551685164
 31
0.0
  0
ARC
  8
0
 62
0
 10
-3.0
 20
22.25
 30
0.0
 40
2.0
 50
-180.0
 51
-90.0
  0
LINE
  8
0
 62
0
 10
-5.0
 20
36.25
 30
0.0
 11
-5.0
 21
22.25
 31
0.0
  0
ARC
  8
0
 62
0
 10
-3.0
 20
36.25
 30
0.0
 40
2.0
 50
90.0
 51
180.0
  0
LINE
  8
0
 62
0
 10
3.0
 20
38.25
 30
0.0
 11
-3.0
 21
38.25
 31
0.0
  0
ARC
  8
0
 62
0
 10
3.0
 20
36.25
 30
0.0
 40
2.0
 50
0.0
 51
90.0
  0
LINE
  8
0
 62
0
 10
5.0
 20
22.25
 30
0.0
 11
5.0
 21
36.25
 31
0.0
  0
ARC
  8
0
 62
0
 10
3.0
 20
22.25
 30
0.0
 40
2.0
 50
-90.0
 51
-0.0
  0
LINE
  8
0
 62
0
 10
-3.0
 20
20.25
 30
0.0
 11
3.0
 21
20.25
 31
0.0
  0
ARC
  8
0
 62
0
 10
13.25
 20
7.25
 30
0.0
 40
1.5
 50
-0.0
 51
90.0
  0
LINE
  8
0
 62
0
 10
14.75
 20
-7.25
 30
0.0
 11
14.75
 21
7.25
 31
0.0
  0
ARC
  8
0
 62
0
 10
13.25
 20
-7.25
 30
0.0
 40
1.5
 50
-90.0
 51
0.0
  0
LINE
  8
0
 62
0
 10
-13.25
 20
-8.75
 30
0.0
 11
13.25
 21
-8.75
 31
0.0
  0
ARC
  8
0
 62
0
 10
-13.25
 20
-7.25
 30
0.0
 40
1.5
 50
-180.0
 51
-90.0
  0
LINE
  8
0
 62
0
 10
-14.75
 20
7.25
 30
0.0
 11
-14.75
 21
-7.25
 31
0.0
  0
ARC
  8
0
 62
0
 10
-13.25
 20
7.25
 30
0.0
 40
1.5
 50
90.0
 51
-180.0
  0
LINE
  8
0
 62
0
 10
13.25
 20
8.75
 30
0.0
 11
-13.25
 21
8.75
 31
0.0
  0
ARC
  8
0
 62
0
 10
9.5
 20
37.25
 30
0.0
 40
1.5
 50
-0.0
 51
-180.0
  0
LINE
  8
0
 62
0
 10
11.0
 20
20.25
 30
0.0
 11
11.0
 21
37.25
 31
0.0
  0
ARC
  8
0
 62
0
 10
9.5
 20
20.25
 30
0.0
 40
1.5
 50
-180.0
 51
-0.0
  0
LINE
  8
0
 62
0
 10
8.0
 20
37.25
 30
0.0
 11
8.0
 21
20.25
 31
0.0
  0
ARC
  8
0
 62
0
 10
-10.2
 20
70.25
 30
0.0
 40
1.0
 50
-0.0
 51
-180.0
  0
LINE
  8
0
 62
0
 10
-9.2
 20
58.25
 30
0.0
 11
-9.2
 21
70.25
 31
0.0
  0
ARC
  8
0
 62
0
 10
-10.2
 20
58.25
 30
0.0
 40
1.0
 50
-180.0
 51
-0.0
  0
LINE
  8
0
 62
0
 10
-11.2
 20
70.25
 30
0.0
 11
-11.2
 21
58.25
 31
0.0
  0
ARC
  8
0
 62
0
 10
-3.0
 20
-36.25
 30
0.0
 40
2.0
 50
-180.0
 51
-90.0
  0
LINE
  8
0
 62
0
 10
-5.0
 20
-22.25
 30
0.0
 11
-5.0
 21
-36.25
 31
0.0
  0
ARC
  8
0
 62
0
 10
-3.0
 20
-22.25
 30
0.0
 40
2.0
 50
90.0
 51
-180.0
  0
LINE
  8
0
 62
0
 10
3.0
 20
-20.25
 30
0.0
 11
-3.0
 21
-20.25
 31
0.0
  0
ARC
  8
0
 62
0
 10
3.0
 20
-22.25
 30
0.0
 40
2.0
 50
-0.0
 51
90.0
  0
LINE
  8
0
 62
0
 10
5.0
 20
-36.25
 30
0.0
 11
5.0
 21
-22.25
 31
0.0
  0
ARC
  8
0
 62
0
 10
3.0
 20
-36.25
 30
0.0
 40
2.0
 50
-90.0
 51
-0.0
  0
LINE
  8
0
 62
0
 10
-3.0
 20
-38.25
 30
0.0
 11
3.0
 21
-38.25
 31
0.0
  0
ARC
  8
0
 62
0
 10
-9.5
 20
-37.25
 30
0.0
 40
1.5
 50
-180.0
 51
-0.0
  0
LINE
  8
0
 62
0
 10
-11.0
 20
-20.25
 30
0.0
 11
-11.0
 21
-37.25
 31
0.0
  0
ARC
  8
0
 62
0
 10
-9.5
 20
-20.25
 30
0.0
 40
1.5
 50
-0.0
 51
-180.0
  0
LINE
  8
0
 62
0
 10
-8.0
 20
-37.25
 30
0.0
 11
-8.0
 21
-20.25
 31
0.0
  0
ARC
  8
0
 62
0
 10
10.2
 20
-70.25
 30
0.0
 40
1.0
 50
-180.0
 51
-0.0
  0
LINE
  8
0
 62
0
 10
9.2
 20
-58.25
 30
0.0
 11
9.2
 21
-70.25
 31
0.0
  0
ARC
  8
0
 62
0
 10
10.2
 20
-58.25
 30
0.0
 40
1.0
 50
-0.0
 51
-180.0
  0
LINE
  8
0
 62
0
 10
11.2
 20
-70.25
 30
0.0
 11
11.2
 21
-58.25
 31
0.0
  0
ARC
  8
0
 62
0
 10
-19.0
 20
7.0
 30
0.0
 40
1.0
 50
0.0
 51
-180.0
  0
LINE
  8
0
 62
0
 10
-18.0
 20
-7.0
 30
0.0
 11
-18.0
 21
7.0
 31
0.0
  0
ARC
  8
0
 62
0
 10
-19.0
 20
-7.0
 30
0.0
 40
1.0
 50
180.0
 51
0.0
  0
LINE
  8
0
 62
0
 10
-20.0
 20
7.0
 30
0.0
 11
-20.0
 21
-7.0
 31
0.0
  0
ENDBLK
  0
ENDSEC
  0
SECTION
  2
ENTITIES
  0
INSERT
  2
PART__FEATURE
  8
0
 10
0.0
 20
0.0
 30
0.0
  0
ENDSEC
  0
EOF
